HIERARCHY
ROOT hip
{
	OFFSET 0.000000 0.000000 0.000000 
	CHANNELS 6 Xposition Yposition Zposition Xrotation Zrotation Yrotation
	JOINT abdomen
	{
		OFFSET 0.000000 3.402643 0.000000 
		CHANNELS 3 Xrotation Zrotation Yrotation
		JOINT chest
		{
			OFFSET 0.000000 8.438565 -0.680529 
			CHANNELS 3 Xrotation Zrotation Yrotation
			JOINT neck
			{
				OFFSET 0.000000 10.207942 -0.272212 
				CHANNELS 3 Xrotation Zrotation Yrotation
				JOINT head
				{
					OFFSET 0.000000 3.130431 0.000000 
					CHANNELS 3 Xrotation Zrotation Yrotation
					End Site
					{
						OFFSET 0.000000 3.130435 0.000000 
					}
				}
			}
			JOINT lCollar
			{
				OFFSET 3.470700 6.669187 -0.816635 
				CHANNELS 3 Yrotation Zrotation Xrotation
				JOINT lShldr
				{
					OFFSET 3.198488 0.000000 0.000000 
					CHANNELS 3 Zrotation Yrotation Xrotation
					JOINT lForeArm
					{
						OFFSET 10.139888 0.000000 0.000000 
						CHANNELS 3 Yrotation Zrotation Xrotation
						JOINT lHand
						{
							OFFSET 8.370511 0.000000 0.000000 
							CHANNELS 3 Zrotation Yrotation Xrotation
							End Site
							{
								OFFSET 4.083176 0.000000 0.000000 
							}
						}
					}
				}
			}
			JOINT rCollar
			{
				OFFSET -3.470700 6.669187 -0.816635 
				CHANNELS 3 Yrotation Zrotation Xrotation
				JOINT rShldr
				{
					OFFSET -3.198488 0.000000 0.000000 
					CHANNELS 3 Zrotation Yrotation Xrotation
					JOINT rForeArm
					{
						OFFSET -10.139888 0.000000 0.000000 
						CHANNELS 3 Yrotation Zrotation Xrotation
						JOINT rHand
						{
							OFFSET -8.370511 0.000000 0.000000 
							CHANNELS 3 Zrotation Yrotation Xrotation
							End Site
							{
								OFFSET -4.083176 0.000000 0.000000 
							}
						}
					}
				}
			}
		}
	}
	JOINT lThigh
	{
		OFFSET 5.308129 -1.633274 1.361059 
		CHANNELS 3 Xrotation Zrotation Yrotation
		JOINT lShin
		{
			OFFSET -2.041588 -20.007561 0.000000 
			CHANNELS 3 Xrotation Zrotation Yrotation
			JOINT lFoot
			{
				OFFSET 0.000000 -19.190928 -1.224953 
				CHANNELS 3 Xrotation Yrotation Zrotation
				End Site
				{
					OFFSET 0.000000 -2.449906 4.627600 
				}
			}
		}
	}
	JOINT rThigh
	{
		OFFSET -5.308129 -1.633274 1.361059 
		CHANNELS 3 Xrotation Zrotation Yrotation
		JOINT rShin
		{
			OFFSET 2.041588 -20.007561 0.000000 
			CHANNELS 3 Xrotation Zrotation Yrotation
			JOINT rFoot
			{
				OFFSET 0.000000 -19.190928 -1.224953 
				CHANNELS 3 Xrotation Yrotation Zrotation
				End Site
				{
					OFFSET 0.000000 -2.449906 4.627600 
				}
			}
		}
	}
}
MOTION
Frames: 15
Frame Time: 0.033333
-0.445696 51.423740 1.105692 -4.951172 0.166016 -4.941406 40.581654 3.898613 -9.705452 -10.029297 8.066406 6.142579 51.063168 8.107644 2.471410 -76.093750 7.548828 1.621094 2.000000 -2.000000 0.000000 -77.314453 -6.308593 1.542969 -57.967331 -1.607004 -2.279241 -6.993139 62.651138 -5.919835 -2.000000 2.000000 0.000000 72.216797 -7.421875 -13.663371 48.972889 1.741959 -1.909561 -11.090667 -64.042213 -5.065515 -3.409131 14.122504 22.497919 53.675369 -3.230759 -4.248101 24.119944 13.396507 -0.460266 -10.300611 -10.013827 -24.421221 28.295357 4.589181 1.889378 0.542676 -8.372276 4.127748 
-0.944450 51.422592 2.162458 -4.580078 0.341802 -6.884615 39.442059 3.412087 -9.176347 -10.117188 9.248047 6.542970 51.063168 8.107644 2.471410 -72.187500 7.587890 1.710274 2.000000 -2.000000 0.000000 -83.222656 0.683594 0.449219 -58.318928 -1.587505 -2.280378 -4.447345 61.303173 -4.682936 -2.000000 2.000000 0.000000 75.625000 -10.986328 -16.486233 50.028667 1.724738 -1.949680 -16.178587 -64.361755 1.139303 -8.787754 14.465138 22.422859 55.846855 -2.885559 -4.310127 21.639521 10.676460 0.388698 -10.565258 -9.606716 -23.200159 30.403654 4.374134 2.485356 -0.542091 -8.058256 4.121436 
-1.443205 51.446880 3.219212 -4.404297 0.507813 -8.837790 38.461586 2.682093 -8.581151 -10.195312 10.585938 6.984216 51.063168 8.107644 2.471410 -68.457031 7.773438 1.591797 2.000000 -2.000000 0.000000 -87.509766 7.421875 -0.692096 -58.670799 -1.558825 -2.291830 -3.624030 60.780830 -4.547126 -2.000000 2.000000 0.000000 77.988281 -14.531250 -18.957527 51.074921 1.717833 -1.999269 -21.513626 -64.452347 7.674156 -13.708004 14.865103 22.292233 57.328701 -3.147699 -4.169025 19.229038 8.423144 1.113470 -10.660430 -9.250715 -21.085016 32.168777 4.383684 2.330609 -1.031841 -7.572249 3.958149 
-1.888902 51.510052 4.324894 -4.238281 0.507813 -10.761617 37.317722 2.097222 -7.901721 -10.253907 11.923828 7.431641 51.063168 8.107644 2.471410 -65.615234 7.656250 1.250000 2.000000 -2.000000 0.000000 -90.419922 12.519532 -0.966797 -58.659660 -1.409183 -2.241889 -5.876818 60.707706 -6.183301 -2.000000 2.000000 0.000000 79.218750 -16.884768 -20.751951 51.250954 1.728151 -2.008447 -25.108652 -64.269966 11.435239 -17.212759 14.689223 22.610245 56.376701 -2.856312 -4.308169 16.604597 6.522884 1.393749 -9.921247 -8.865941 -20.140564 32.699787 4.257123 2.795428 -2.419655 -7.396936 3.627913 
-2.228486 51.644314 5.528427 -3.701171 0.683594 -12.529181 36.154243 1.609777 -7.374177 -10.302735 13.261719 7.861329 51.063168 8.107644 2.471410 -64.218750 7.402343 0.762977 2.000000 -2.000000 0.000000 -92.480469 16.298828 -0.680853 -58.657753 -1.238906 -2.173594 -8.696344 60.919979 -7.479085 -2.000000 2.000000 0.000000 78.837891 -16.328125 -20.380859 50.029121 1.764872 -1.966896 -25.982901 -63.393997 12.302335 -19.682905 14.523504 22.338812 52.583626 -3.802988 -4.138190 12.715760 5.201743 1.777837 -8.523069 -8.383836 -18.768309 32.347054 4.330635 2.767487 -3.484795 -7.441051 2.610934 
-2.408901 51.781700 6.878734 -3.359375 0.507813 -14.101542 34.997662 1.013984 -6.668660 -10.371094 14.453126 8.242188 51.063168 8.107644 2.471410 -64.404297 7.070312 0.292969 2.000000 -2.000000 0.000000 -93.525391 19.453127 0.429688 -58.659168 -1.378801 -2.224105 -10.681962 61.471756 -8.009794 -2.000000 2.000000 0.000000 77.275391 -13.281250 -19.121092 47.741245 1.807925 -1.866599 -25.685078 -62.485561 11.600475 -20.563335 14.165080 22.790657 46.579430 -3.887383 -3.788757 8.260464 3.997705 2.496199 -7.069060 -7.985192 -17.873161 31.294544 4.345021 2.569288 -4.735264 -7.087981 1.999952 
-2.471829 51.912273 8.326568 -2.470703 0.341799 -15.663895 34.017937 0.494089 -6.112214 -10.234375 15.605471 8.652346 51.063168 8.107644 2.471410 -65.693359 6.474608 -0.019531 2.000000 -2.000000 0.000000 -93.671875 21.796877 2.919922 -58.835693 -1.419500 -2.251065 -11.772738 62.249088 -8.692125 -2.000000 2.000000 0.000000 75.205078 -10.478516 -18.097477 45.982269 2.001197 -1.825990 -24.601000 -62.319233 9.610705 -21.029926 13.361167 23.352377 39.026463 -4.201843 -3.392722 4.102708 3.042236 2.977766 -5.632683 -7.601525 -16.377752 30.070824 4.481420 1.999635 -5.423529 -6.433544 2.149849 
-2.497438 52.026279 9.789247 -1.611328 0.166016 -17.236298 33.056953 -0.032842 -5.537912 -10.292969 16.787111 8.860243 51.063168 8.107644 2.471410 -67.851563 5.917969 -0.244140 2.000000 -2.000000 0.000000 -93.183594 23.281252 6.035156 -59.194496 -1.601112 -2.514540 -11.318569 63.551777 -7.300284 -2.000000 2.000000 0.000000 73.876953 -9.140625 -16.484373 45.805511 1.822866 -1.787497 -23.531908 -62.829388 7.805421 -20.722395 12.499721 23.865131 30.554499 -4.596007 -2.766937 1.816699 1.887570 3.266314 -4.013447 -7.108072 -15.366982 28.644964 4.569261 1.903916 -5.839657 -5.864745 2.187856 
-2.490356 52.043594 11.265559 -0.361328 -0.175781 -18.808592 32.098015 -0.631197 -5.219703 -10.351562 17.812502 9.338925 51.063168 8.107644 2.471410 -70.185547 5.195312 -0.507813 2.000000 -2.000000 0.000000 -91.972656 24.394531 9.160157 -59.552898 -1.741683 -2.408581 -11.384762 64.617752 -6.555166 -2.000000 2.000000 0.000000 72.021484 -8.427733 -14.501951 46.508942 1.803938 -1.798380 -21.269875 -63.683846 4.464946 -19.003731 10.693190 25.272238 18.383430 -4.974888 -1.765738 3.480793 0.705142 5.033416 -2.850338 -6.799896 -14.920134 27.417612 4.520716 2.287597 -5.856970 -5.036498 1.708936 
-2.455247 52.056694 12.754264 0.703125 -0.537109 -20.244169 31.130774 -1.230697 -4.870982 -10.410156 18.662111 9.592968 51.063168 8.107644 2.471410 -72.333984 4.667968 -0.800781 2.000000 -2.000000 0.000000 -91.376953 26.025393 11.181641 -59.894993 -1.722752 -2.419460 -11.559096 65.314056 -6.811263 -2.000000 2.000000 0.000000 70.888672 -7.871094 -13.468133 46.861023 1.805077 -1.817871 -19.660183 -64.048767 2.888033 -16.376881 8.544835 26.436235 3.604520 -5.297020 -0.510787 7.533314 -0.593587 7.175812 -1.825945 -6.812220 -13.541728 26.178310 4.599294 1.863664 -5.184457 -4.348919 1.788146 
-2.396740 51.999016 14.254309 1.757813 -0.722656 -21.660278 30.385136 -1.911636 -4.751060 -10.507813 19.355469 9.775391 51.063168 8.107644 2.471410 -73.945313 4.433593 -1.318360 2.000000 -2.000000 0.000000 -92.089844 28.193359 11.332740 -60.590508 -1.384931 -2.497779 -12.082246 65.478233 -8.348407 -2.000000 2.000000 0.000000 70.156250 -6.582031 -14.199219 46.334393 1.982838 -1.846618 -16.827620 -62.731457 1.341276 -14.040499 6.490669 27.476280 -9.060884 -5.249681 0.592294 10.041246 -1.977013 8.572799 -0.654722 -6.662421 -12.896625 25.164822 4.626242 2.262576 -5.019583 -3.609615 1.611894 
-2.319511 51.850307 16.815485 2.636719 -1.054679 -22.578463 29.645979 -2.503585 -4.785362 -10.644530 19.707031 9.827511 51.063168 8.107644 2.471410 -74.462891 4.462890 -2.412110 2.000000 -2.000000 0.000000 -93.417969 30.410156 9.467834 -61.124470 -1.505436 -2.383208 -12.191225 64.913124 -9.397958 -2.000000 2.000000 0.000000 69.863281 -5.605469 -15.361328 45.807266 2.130212 -1.857581 -13.190554 -61.148361 -0.239207 -12.957441 5.388425 27.755110 -15.419455 -5.117065 1.122515 8.911492 -3.037149 9.190658 0.564213 -6.505282 -12.050997 24.459757 4.655293 2.045812 -5.045072 -3.413439 1.526081 
-2.228187 51.645672 17.808920 3.164063 -1.240223 -23.301186 29.124264 -3.323190 -5.103570 -11.005860 19.746094 9.873048 51.063168 8.107644 2.471410 -74.619141 4.951171 -4.432751 2.000000 -2.000000 0.000000 -93.867188 31.416019 7.690639 -61.293941 -1.356250 -2.509226 -13.122928 64.644501 -11.523160 -2.000000 2.000000 0.000000 70.605469 -5.244141 -15.888673 45.107208 1.939339 -1.604355 -10.435535 -59.531506 -0.997695 -18.201767 8.396629 27.176291 -2.053133 -5.276601 -0.034776 4.851099 -1.738646 9.119036 1.502964 -6.784299 -11.239190 24.459415 4.655332 2.055540 -4.603710 -3.055985 1.572699 
-2.127419 51.400597 19.335581 3.496094 -1.425781 -23.486570 28.634584 -4.236699 -5.644852 -11.249999 19.443361 9.690751 51.063168 8.107644 2.471410 -74.580078 5.585937 -6.093750 2.000000 -2.000000 0.000000 -93.925781 31.318361 5.556641 -61.118145 -1.365999 -2.508659 -13.419696 64.776459 -11.724857 -2.000000 2.000000 0.000000 72.294922 -6.396484 -15.772573 45.454193 1.970240 -1.798459 -9.604306 -58.985657 -1.407200 -21.297310 10.163985 25.851143 6.429985 -5.234190 -0.755741 2.622478 -0.002781 8.922686 1.776123 -7.400141 -10.550675 26.217911 4.596805 2.167549 -3.394865 -2.838174 1.858275 
-2.021851 51.149731 20.343132 3.339844 -1.425781 -23.310791 28.524202 -5.062438 -6.308948 -11.494141 18.955080 9.651609 51.063168 8.107644 2.471410 -74.726563 6.074217 -7.031250 2.000000 -2.000000 0.000000 -93.515625 30.332033 3.081105 -60.772659 -1.495119 -2.374029 -13.047510 65.004868 -10.373776 -2.000000 2.000000 0.000000 74.658203 -8.330078 -15.429686 45.805511 1.822866 -1.787497 -9.333240 -58.689999 -1.501483 -22.358431 10.589627 24.667492 12.048412 -5.156572 -1.268923 1.441414 1.347265 8.844585 1.052798 -8.469671 -10.063411 29.737425 4.410602 2.440629 0.177203 -2.966913 1.208048 
